<svg width="36" height="35" viewBox="0 0 36 35" fill="none" xmlns="http://www.w3.org/2000/svg">
<circle cx="16.1379" cy="18.6207" r="16.1379" fill="white"/>
<path d="M10.2673 18.2515L10.6057 14.3521H14.0056V15.2706H11.406L11.2234 17.4029C11.5456 17.1773 11.893 17.0645 12.2654 17.0645C12.8741 17.0645 13.3521 17.3008 13.6995 17.7735C14.0468 18.2461 14.2205 18.8817 14.2205 19.6802C14.2205 20.4895 14.0307 21.1251 13.6511 21.587C13.2751 22.0489 12.7577 22.2798 12.0989 22.2798C11.5116 22.2798 11.0336 22.0883 10.6648 21.7051C10.296 21.322 10.0847 20.792 10.031 20.1153H10.9226C10.9763 20.5629 11.1034 20.9013 11.3039 21.1304C11.508 21.356 11.773 21.4688 12.0989 21.4688C12.4677 21.4688 12.7559 21.3095 12.9636 20.9908C13.1713 20.6685 13.2751 20.2352 13.2751 19.691C13.2751 19.1789 13.1623 18.7618 12.9368 18.4395C12.7148 18.1172 12.414 17.9561 12.0344 17.9561C11.7193 17.9561 11.4669 18.0385 11.2771 18.2032L11.0247 18.4556L10.2673 18.2515ZM15.4612 21.6514C15.4612 21.4795 15.5113 21.3363 15.6116 21.2217C15.7154 21.1071 15.8694 21.0499 16.0735 21.0499C16.2776 21.0499 16.4316 21.1071 16.5354 21.2217C16.6428 21.3363 16.6965 21.4795 16.6965 21.6514C16.6965 21.8161 16.6428 21.954 16.5354 22.065C16.4316 22.176 16.2776 22.2315 16.0735 22.2315C15.8694 22.2315 15.7154 22.176 15.6116 22.065C15.5113 21.954 15.4612 21.8161 15.4612 21.6514ZM22.3953 18.837C22.3953 19.99 22.227 20.8529 21.8904 21.4258C21.5538 21.9952 21.0256 22.2798 20.3059 22.2798C19.6077 22.2798 19.0867 22.0059 18.7429 21.4581C18.3992 20.9102 18.2201 20.0866 18.2058 18.9874V17.6446C18.2058 16.5023 18.3741 15.6501 18.7107 15.0879C19.0509 14.5258 19.579 14.2447 20.2952 14.2447C21.0006 14.2447 21.5216 14.5114 21.8581 15.045C22.1983 15.5785 22.3774 16.386 22.3953 17.4673V18.837ZM21.4446 17.4781C21.4446 16.6509 21.3533 16.0422 21.1706 15.6519C20.988 15.258 20.6962 15.0611 20.2952 15.0611C19.9049 15.0611 19.6184 15.2544 19.4358 15.6412C19.2532 16.0243 19.1583 16.6044 19.1511 17.3814V18.9927C19.1511 19.8163 19.246 20.4358 19.4358 20.8511C19.6256 21.2629 19.9156 21.4688 20.3059 21.4688C20.6926 21.4688 20.9773 21.2737 21.1599 20.8834C21.3425 20.4931 21.4374 19.8969 21.4446 19.0948V17.4781Z" fill="#808080"/>
<circle cx="28.5517" cy="7.44828" r="7.44828" fill="#E3C065"/>
<path d="M28.1522 3.98323L27.2431 5.90907L25.2091 6.21889C24.8443 6.27417 24.6981 6.74399 24.9626 7.01308L26.4342 8.51128L26.0861 10.6277C26.0235 11.0102 26.4091 11.2968 26.7321 11.1179L28.5517 10.1186L30.3713 11.1179C30.6943 11.2953 31.08 11.0102 31.0173 10.6277L30.6693 8.51128L32.1408 7.01308C32.4053 6.74399 32.2592 6.27417 31.8944 6.21889L29.8604 5.90907L28.9513 3.98323C28.7884 3.63996 28.3164 3.63559 28.1522 3.98323Z" fill="white"/>
</svg>
