<svg width="23" height="18" viewBox="0 0 23 18" fill="none" xmlns="http://www.w3.org/2000/svg">
<path d="M21.81 0.341801C21.5863 -0.097593 20.9474 -0.115169 20.6798 0.299619C19.4419 2.19429 17.2255 3.37538 14.6937 3.37538H11.4989C7.26587 3.37538 3.83151 6.39841 3.83151 10.1245C3.83151 10.3705 3.86346 10.6061 3.89141 10.8451C6.43923 9.23866 10.1172 7.87478 15.3326 7.87478C15.684 7.87478 15.9716 8.12787 15.9716 8.4372C15.9716 8.74653 15.684 8.99963 15.3326 8.99963C5.29311 8.99963 1.03611 14.4165 0.0936575 16.4518C-0.169909 17.0247 0.141579 17.6785 0.792509 17.9141C1.44743 18.1531 2.19021 17.8754 2.46176 17.3059C2.52167 17.1794 3.29639 15.6222 5.33304 14.1212C6.62692 15.6644 9.08687 17.1372 12.3176 16.8349C18.5873 16.4342 23 11.4848 23 5.42471C23 3.66011 22.5687 1.83223 21.81 0.341801Z" fill="#527C1E"/>
</svg>
